<svg width="300" height="263" viewBox="0 0 300 263" fill="none"
    xmlns="http://www.w3.org/2000/svg">
    <path d="M271.875 131.5H225V94C225 73.4922 241.406 56.5 262.5 56.5H267.188C274.805 56.5 281.25 50.6406 281.25 42.4375V14.3125C281.25 6.69531 274.805 0.25 267.188 0.25H262.5C210.352 0.25 168.75 42.4375 168.75 94V234.625C168.75 250.445 181.055 262.75 196.875 262.75H271.875C287.109 262.75 300 250.445 300 234.625V159.625C300 144.391 287.109 131.5 271.875 131.5ZM103.125 131.5H56.25V94C56.25 73.4922 72.6562 56.5 93.75 56.5H98.4375C106.055 56.5 112.5 50.6406 112.5 42.4375V14.3125C112.5 6.69531 106.055 0.25 98.4375 0.25H93.75C41.6016 0.25 0 42.4375 0 94V234.625C0 250.445 12.3047 262.75 28.125 262.75H103.125C118.359 262.75 131.25 250.445 131.25 234.625V159.625C131.25 144.391 118.359 131.5 103.125 131.5Z" fill="#F8F7F7"></path>
</svg>